<?xml version="1.0" encoding="utf-8"?>
<svg width="28" height="28" viewBox="0 0 28 28" fill="none" xmlns="http://www.w3.org/2000/svg">
  <circle cx="14" cy="14" r="14" fill="black"/>
  <path d="M 13.01 14.931 L 13.132 14.931 C 14.021 14.944 14.874 15.28 15.529 15.873 L 15.529 14.969 C 15.532 14.942 15.547 14.93 15.57 14.93 L 16.648 14.93 C 16.675 14.933 16.688 14.946 16.688 14.969 L 16.688 21.984 C 16.69 21.996 16.686 22.007 16.678 22.014 C 16.67 22.021 16.658 22.026 16.648 22.024 L 15.572 22.024 C 15.559 22.026 15.548 22.022 15.541 22.014 C 15.533 22.007 15.529 21.995 15.53 21.984 L 15.53 21.08 C 14.903 21.666 14.078 22.001 13.216 22.022 L 12.91 22.022 C 11.933 21.981 11.021 21.546 10.37 20.819 C 9.821 20.18 9.512 19.372 9.497 18.534 L 9.497 18.434 C 9.499 17.3 10.06 16.239 11.001 15.587 C 11.584 15.168 12.286 14.938 13.009 14.931 L 13.01 14.931 Z M 10.654 18.419 L 10.654 18.539 C 10.66 19.386 11.134 20.174 11.893 20.585 C 12.22 20.771 12.591 20.875 12.969 20.885 L 13.172 20.885 C 14.452 20.841 15.476 19.823 15.509 18.559 L 15.509 18.4 C 15.491 17.48 14.936 16.653 14.086 16.276 C 13.777 16.151 13.447 16.084 13.113 16.075 L 13.052 16.075 C 12.423 16.083 11.82 16.332 11.373 16.769 C 10.926 17.207 10.669 17.799 10.656 18.42 L 10.654 18.419 Z" style="transform-origin: 13.093px 18.478px; fill: rgb(255, 255, 255);"/>
  <text style="fill: rgb(255, 255, 255); font-family: Arial, sans-serif; font-size: 0.98533px; stroke-width: 0.0704306px; white-space: pre;" transform="matrix(13.389181, 0, 0, 10.85385, 8.864824, -3.411737)" x="3.266" y="12.86">M</text>
  <text style="white-space: pre; fill: rgb(51, 51, 51); font-family: Arial, sans-serif; font-size: 1.2px;" x="-0.777" y="6.145"> </text>
  <text style="fill: rgb(255, 255, 255); font-family: Arial, sans-serif; font-size: 0.98533px; stroke-width: 0.0704306px; white-space: pre;" transform="matrix(18.030844, 0, 0, 11.468589, -41.275429, -134.665771)" x="3.266" y="12.86">r</text>
  <text style="white-space: pre; fill: rgb(51, 51, 51); font-family: Arial, sans-serif; font-size: 1.2px;" x="29.246" y="8.241"> </text>
  <text style="fill: rgb(255, 255, 255); font-family: Arial, sans-serif; font-size: 0.98533px; stroke-width: 0.0704306px; white-space: pre;" transform="matrix(24.099297, 0, 0, 20.579926, -57.704647, -252.15773)" x="3.266" y="12.86">.</text>
  <text style="white-space: pre; fill: rgb(51, 51, 51); font-family: Arial, sans-serif; font-size: 1.2px;" x="35.148" y="17.65"> </text>
  <text style="white-space: pre; fill: rgb(51, 51, 51); font-family: Arial, sans-serif; font-size: 1.2px;" x="42.633" y="18.334"> </text>
  <text style="fill: rgb(255, 255, 255); font-family: Arial, sans-serif; font-size: 0.98533px; stroke-width: 0.0704306px; white-space: pre;" transform="matrix(12.985768, 0, 0, 11.089375, -25.817608, -121.442154)" x="3.266" y="12.86">n</text>
  <path d="M 29.925 23.976 L 29.925 26.198 L 29.711 26.209 L 29.588 26.209 C 26.223 26.435 24.191 24.859 23.491 21.479 L 23.46 20.045 C 23.48 19.34 23.491 18.564 23.491 17.716 L 23.491 13.595 C 23.489 13.575 23.494 13.554 23.507 13.541 C 23.519 13.528 23.536 13.521 23.552 13.523 L 25.176 13.523 C 25.193 13.52 25.21 13.527 25.222 13.541 C 25.232 13.555 25.239 13.576 25.238 13.595 L 25.238 19.042 L 25.36 21.119 C 25.697 23.091 26.871 24.106 28.883 24.165 C 29.236 24.163 29.587 24.099 29.925 23.976 Z" style="transform-origin: 26.693px 19.876px; fill: rgb(255, 255, 255);"/>
  <text style="fill: rgb(255, 255, 255); font-family: Arial, sans-serif; font-size: 0.98533px; stroke-width: 0.0704306px; white-space: pre;" transform="matrix(14.221245, 0, 0, 15.198564, -43.180931, -171.542633)" x="3.266" y="12.86">J</text>
  <text style="fill: rgb(255, 255, 255); font-family: Arial, sans-serif; font-size: 0.98533px; stroke-width: 0.0704306px; white-space: pre;" transform="matrix(15.214501, 0, 0, 10.563277, -42.985264, -123.121437)" x="3.266" y="12.86">M</text>
</svg>