<?xml version="1.0" encoding="utf-8"?>
<svg width="178" height="29" viewBox="0 0 178 29" fill="none" xmlns="http://www.w3.org/2000/svg">
  <path d="M60.6016 16H62.5352C62.9622 16 63.3229 15.9062 63.6172 15.7188C63.9141 15.5443 64.1458 15.3229 64.3125 15.0547C64.375 14.9531 64.4284 14.8555 64.4727 14.7617C64.5143 14.6654 64.5456 14.556 64.5664 14.4336C64.6107 14.1914 64.6328 13.7643 64.6328 13.1523C64.6328 12.5768 64.6185 12.1719 64.5898 11.9375C64.5534 11.7031 64.4661 11.4792 64.3281 11.2656C63.9427 10.6302 63.3646 10.3099 62.5938 10.3047H60.6016V16ZM61.4648 11.1211H62.4961C62.9336 11.1107 63.2721 11.2708 63.5117 11.6016C63.6289 11.7344 63.7031 11.9076 63.7344 12.1211C63.7578 12.3346 63.7695 12.6888 63.7695 13.1836C63.7695 13.6914 63.7578 14.0378 63.7344 14.2227C63.7083 14.4102 63.6471 14.5651 63.5508 14.6875C63.332 15.0182 62.9805 15.1836 62.4961 15.1836H61.4648V11.1211ZM67.2006 16H70.8373V15.1836H68.0639V13.5117H70.4311V12.7461H68.0639V11.1211H70.8373V10.3047H67.2006V16ZM73.2841 14.6172L72.7177 15.2656C73.3244 15.7865 74.0497 16.0469 74.8934 16.0469C76.1981 16.0312 76.8648 15.4792 76.8934 14.3906C76.8934 13.987 76.7671 13.6328 76.5145 13.3281C76.2593 13.0182 75.8648 12.8268 75.3309 12.7539C75.0601 12.7201 74.8466 12.6901 74.6903 12.6641C74.4091 12.612 74.2046 12.5182 74.077 12.3828C73.9494 12.25 73.8856 12.1016 73.8856 11.9375C73.8908 11.6641 73.9859 11.4583 74.1708 11.3203C74.3479 11.1875 74.5692 11.1211 74.8348 11.1211C75.3479 11.1315 75.8179 11.2773 76.245 11.5586L76.7255 10.8477C76.202 10.4701 75.5861 10.2734 74.8778 10.2578C74.2893 10.263 73.8348 10.4167 73.5145 10.7188C73.1838 11.0234 73.0184 11.4245 73.0184 11.9219C73.0184 12.3359 73.1499 12.6875 73.413 12.9766C73.6682 13.2578 74.0406 13.4388 74.5302 13.5195C74.8036 13.5586 75.0549 13.5938 75.2841 13.625C75.7841 13.7109 76.0315 13.9661 76.0262 14.3906C76.0158 14.9089 75.6408 15.1732 74.9012 15.1836C74.2762 15.1784 73.7372 14.9896 73.2841 14.6172ZM79.3675 16H80.2308V10.3047H79.3675V16ZM84.8377 13.6797H85.9978V13.9766C85.9926 14.3333 85.8806 14.6211 85.6619 14.8398C85.4431 15.069 85.1658 15.1836 84.8298 15.1836C84.6267 15.1836 84.4522 15.1406 84.3064 15.0547C84.158 14.9818 84.0382 14.8867 83.947 14.7695C83.8351 14.6471 83.7608 14.487 83.7244 14.2891C83.6827 14.0911 83.6619 13.7122 83.6619 13.1523C83.6619 12.5924 83.6827 12.2109 83.7244 12.0078C83.7608 11.8151 83.8351 11.6576 83.947 11.5352C84.0382 11.418 84.158 11.3203 84.3064 11.2422C84.4522 11.1667 84.6267 11.1263 84.8298 11.1211C85.1059 11.1263 85.3403 11.2057 85.533 11.3594C85.7179 11.5208 85.8455 11.7161 85.9158 11.9453H86.8298C86.7387 11.4688 86.5199 11.069 86.1736 10.7461C85.8272 10.4258 85.3793 10.263 84.8298 10.2578C84.3819 10.263 84.0082 10.3698 83.7087 10.5781C83.4041 10.7839 83.1827 11.0182 83.0447 11.2812C82.9587 11.4193 82.8949 11.6003 82.8533 11.8242C82.8142 12.0482 82.7947 12.4909 82.7947 13.1523C82.7947 13.8034 82.8142 14.2435 82.8533 14.4727C82.8741 14.5951 82.9002 14.6966 82.9314 14.7773C82.9653 14.8555 83.003 14.9375 83.0447 15.0234C83.1827 15.2865 83.4041 15.5182 83.7087 15.7188C84.0082 15.9271 84.3819 16.0365 84.8298 16.0469C85.4106 16.0365 85.8923 15.8398 86.2752 15.457C86.6554 15.0716 86.8507 14.5938 86.8611 14.0234V12.8633H84.8377V13.6797ZM89.4328 16H90.2961V11.9531H90.3117L92.8859 16H93.7023V10.3047H92.8391V14.3516H92.8234L90.2453 10.3047H89.4328V16ZM100.998 11.5195C100.998 11.3659 101.054 11.2357 101.166 11.1289C101.268 11.0273 101.398 10.9766 101.557 10.9766C101.723 10.9766 101.86 11.0273 101.967 11.1289C102.068 11.2357 102.119 11.3659 102.119 11.5195C102.119 11.6628 102.071 11.7943 101.975 11.9141C101.868 12.0312 101.683 12.1432 101.42 12.25C101.298 12.1328 101.2 12.0091 101.127 11.8789C101.041 11.7565 100.998 11.6367 100.998 11.5195ZM103.053 15.4258L103.58 16H104.541L103.58 14.8555C103.742 14.681 103.886 14.4844 104.014 14.2656C104.141 14.0521 104.246 13.8385 104.326 13.625L103.596 13.3359C103.489 13.6771 103.324 13.9948 103.1 14.2891L101.885 12.8242C102.531 12.5039 102.848 12.0794 102.838 11.5508C102.833 11.194 102.716 10.8906 102.486 10.6406C102.257 10.3906 101.947 10.263 101.557 10.2578C101.169 10.263 100.86 10.3906 100.631 10.6406C100.397 10.8906 100.279 11.194 100.279 11.5508C100.279 11.7435 100.326 11.931 100.42 12.1133C100.501 12.2982 100.61 12.4714 100.748 12.6328C100.029 13.0312 99.6674 13.5859 99.6622 14.2969C99.6674 14.776 99.8354 15.1836 100.166 15.5195C100.486 15.8607 100.919 16.0365 101.463 16.0469C101.765 16.0417 102.048 15.9805 102.311 15.8633C102.576 15.7461 102.824 15.6003 103.053 15.4258ZM101.205 13.1758L102.58 14.8242C102.187 15.1654 101.805 15.3333 101.436 15.3281C101.149 15.3281 100.904 15.2266 100.701 15.0234C100.493 14.8307 100.386 14.5859 100.381 14.2891C100.376 13.8724 100.65 13.5013 101.205 13.1758ZM110.181 16H112.114C112.541 16 112.902 15.9062 113.196 15.7188C113.493 15.5443 113.725 15.3229 113.892 15.0547C113.954 14.9531 114.007 14.8555 114.052 14.7617C114.093 14.6654 114.125 14.556 114.145 14.4336C114.19 14.1914 114.212 13.7643 114.212 13.1523C114.212 12.5768 114.198 12.1719 114.169 11.9375C114.132 11.7031 114.045 11.4792 113.907 11.2656C113.522 10.6302 112.944 10.3099 112.173 10.3047H110.181V16ZM111.044 11.1211H112.075C112.513 11.1107 112.851 11.2708 113.091 11.6016C113.208 11.7344 113.282 11.9076 113.313 12.1211C113.337 12.3346 113.349 12.6888 113.349 13.1836C113.349 13.6914 113.337 14.0378 113.313 14.2227C113.287 14.4102 113.226 14.5651 113.13 14.6875C112.911 15.0182 112.56 15.1836 112.075 15.1836H111.044V11.1211ZM116.78 16H120.416V15.1836H117.643V13.5117H120.01V12.7461H117.643V11.1211H120.416V10.3047H116.78V16ZM124.078 16H124.75L126.633 10.3047H125.719L124.422 14.6406H124.406L123.113 10.3047H122.199L124.078 16ZM128.806 16H132.443V15.1836H129.669V13.5117H132.036V12.7461H129.669V11.1211H132.443V10.3047H128.806V16ZM134.819 16H138.456V15.1836H135.682V10.3047H134.819V16ZM140.637 13.1523C140.637 13.8034 140.656 14.2435 140.695 14.4727C140.716 14.5951 140.742 14.6966 140.774 14.7773C140.807 14.8555 140.845 14.9375 140.887 15.0234C141.025 15.2865 141.246 15.5182 141.551 15.7188C141.85 15.9271 142.224 16.0365 142.672 16.0469C143.125 16.0365 143.503 15.9271 143.805 15.7188C144.104 15.5182 144.32 15.2865 144.453 15.0234C144.55 14.8854 144.616 14.7018 144.652 14.4727C144.686 14.2435 144.703 13.8034 144.703 13.1523C144.703 12.4909 144.686 12.0482 144.652 11.8242C144.616 11.6003 144.55 11.4193 144.453 11.2812C144.32 11.0182 144.104 10.7839 143.805 10.5781C143.503 10.3698 143.125 10.263 142.672 10.2578C142.224 10.263 141.85 10.3698 141.551 10.5781C141.246 10.7839 141.025 11.0182 140.887 11.2812C140.801 11.4193 140.737 11.6003 140.695 11.8242C140.656 12.0482 140.637 12.4909 140.637 13.1523ZM141.504 13.1523C141.504 12.5924 141.525 12.2109 141.567 12.0078C141.603 11.8151 141.677 11.6576 141.789 11.5352C141.88 11.418 142 11.3203 142.149 11.2422C142.294 11.1667 142.469 11.1263 142.672 11.1211C142.878 11.1263 143.056 11.1667 143.207 11.2422C143.35 11.3203 143.465 11.418 143.551 11.5352C143.663 11.6576 143.74 11.8151 143.781 12.0078C143.82 12.2109 143.84 12.5924 143.84 13.1523C143.84 13.7122 143.82 14.0911 143.781 14.2891C143.74 14.487 143.663 14.6471 143.551 14.7695C143.465 14.8867 143.35 14.9818 143.207 15.0547C143.056 15.1406 142.878 15.1836 142.672 15.1836C142.469 15.1836 142.294 15.1406 142.149 15.0547C142 14.9818 141.88 14.8867 141.789 14.7695C141.677 14.6471 141.603 14.487 141.567 14.2891C141.525 14.0911 141.504 13.7122 141.504 13.1523ZM148.138 11.1211H149.384C149.619 11.1159 149.824 11.1693 150.002 11.2812C150.119 11.349 150.21 11.4414 150.275 11.5586C150.338 11.6888 150.369 11.849 150.369 12.0391C150.369 12.2682 150.292 12.4766 150.138 12.6641C149.977 12.8568 149.736 12.9557 149.416 12.9609H148.138V11.1211ZM147.275 16H148.138V13.7773H149.451C150.037 13.7669 150.482 13.5794 150.787 13.2148C151.084 12.8685 151.232 12.4844 151.232 12.0625C151.232 11.75 151.173 11.4792 151.056 11.25C150.944 11.013 150.798 10.8307 150.619 10.7031C150.405 10.5339 150.194 10.4219 149.986 10.3672C149.778 10.3255 149.561 10.3047 149.338 10.3047H147.275V16ZM153.577 16H154.44V12.4492H154.456L155.647 15.1836H156.366L157.558 12.4492H157.577V16H158.44V10.3047H157.624L156.022 14.0156L154.39 10.3047H153.577V16ZM161.2 16H164.836V15.1836H162.063V13.5117H164.43V12.7461H162.063V11.1211H164.836V10.3047H161.2V16ZM167.213 16H168.076V11.9531H168.092L170.666 16H171.482V10.3047H170.619V14.3516H170.603L168.025 10.3047H167.213V16ZM175.214 16H176.081V11.0742H177.64V10.3047H173.656V11.0742H175.214V16Z" fill="white" style=""/>
  <path d="M 15.318 17.712 L 15.499 17.712 C 16.819 17.731 18.085 18.229 19.057 19.11 L 19.057 17.768 C 19.062 17.728 19.083 17.71 19.117 17.71 L 20.718 17.71 C 20.758 17.715 20.778 17.735 20.778 17.768 L 20.778 28.181 C 20.781 28.199 20.775 28.215 20.763 28.226 C 20.751 28.237 20.734 28.243 20.718 28.241 L 19.12 28.241 C 19.102 28.244 19.086 28.238 19.075 28.226 C 19.063 28.215 19.058 28.198 19.059 28.181 L 19.059 26.839 C 18.128 27.708 16.904 28.206 15.623 28.238 L 15.17 28.238 C 13.719 28.176 12.365 27.531 11.4 26.452 C 10.584 25.503 10.126 24.304 10.103 23.06 L 10.103 22.912 C 10.106 21.229 10.939 19.653 12.335 18.686 C 13.202 18.064 14.244 17.722 15.317 17.712 L 15.318 17.712 Z M 11.82 22.889 L 11.82 23.068 C 11.829 24.326 12.534 25.495 13.66 26.104 C 14.146 26.381 14.696 26.535 15.257 26.55 L 15.559 26.55 C 17.459 26.485 18.979 24.973 19.027 23.098 L 19.027 22.861 C 19 21.496 18.177 20.268 16.916 19.708 C 16.456 19.523 15.967 19.423 15.471 19.41 L 15.381 19.41 C 14.446 19.422 13.552 19.792 12.888 20.441 C 12.225 21.091 11.843 21.97 11.823 22.891 L 11.82 22.889 Z" style="transform-origin: 15.441px 22.976px; fill: rgb(255, 255, 255);"/>
  <text style="fill: rgb(255, 255, 255); font-family: Arial, sans-serif; font-size: 0.98533px; stroke-width: 0.0704306px; white-space: pre;" transform="matrix(24.099297, 0, 0, 20.579926, -70.371696, -249.030609)" x="3.266" y="12.86">M</text>
  <text style="fill: rgb(255, 255, 255); font-family: Arial, sans-serif; font-size: 1.2px; white-space: pre;" x="5.429" y="5.069"> </text>
  <text style="fill: rgb(255, 255, 255); font-family: Arial, sans-serif; font-size: 0.98533px; stroke-width: 0.0704306px; white-space: pre;" transform="matrix(24.099297, 0, 0, 20.579926, -51.990826, -249.179108)" x="3.266" y="12.86">r</text>
  <text style="fill: rgb(255, 255, 255); font-family: Arial, sans-serif; font-size: 1.2px; white-space: pre;" x="35.452" y="7.165"> </text>
  <text style="fill: rgb(255, 255, 255); font-family: Arial, sans-serif; font-size: 0.98533px; stroke-width: 0.0704306px; white-space: pre;" transform="matrix(24.099297, 0, 0, 20.579926, -47.493504, -249.424515)" x="3.266" y="12.86">.</text>
  <text style="fill: rgb(255, 255, 255); font-family: Arial, sans-serif; font-size: 1.2px; white-space: pre;" x="41.354" y="16.574"> </text>
  <text style="fill: rgb(51, 51, 51); font-family: Arial, sans-serif; font-size: 1.2px; white-space: pre;" x="48.839" y="17.258"> </text>
  <text style="fill: rgb(255, 255, 255); font-family: Arial, sans-serif; font-size: 0.98533px; stroke-width: 0.0704306px; white-space: pre;" transform="matrix(24.099297, 0, 0, 20.579926, -57.863209, -236.395584)" x="3.266" y="12.86">n</text>
  <path d="M 40.236 26.322 L 40.236 28.233 L 40.014 28.243 L 39.889 28.243 C 36.42 28.437 34.326 27.082 33.604 24.174 L 33.573 22.94 C 33.593 22.334 33.604 21.666 33.604 20.937 L 33.604 17.392 C 33.602 17.374 33.609 17.357 33.622 17.345 C 33.634 17.334 33.651 17.328 33.667 17.33 L 35.341 17.33 C 35.358 17.327 35.377 17.333 35.389 17.345 C 35.399 17.357 35.406 17.375 35.405 17.392 L 35.405 22.078 L 35.531 23.864 C 35.878 25.561 37.088 26.434 39.162 26.484 C 39.525 26.483 39.888 26.428 40.236 26.322 Z" style="transform-origin: 36.904px 22.795px; fill: rgb(255, 255, 255);"/>
  <text style="fill: rgb(255, 255, 255); font-family: Arial, sans-serif; font-size: 0.98533px; stroke-width: 0.0704306px; white-space: pre;" transform="matrix(20.961924, 0, 0, 21.412922, -68.498466, -246.99588)" x="3.266" y="12.86">J</text>
</svg>