<?xml version="1.0" encoding="utf-8"?>
<svg width="36" height="28" viewBox="0 0 36 28" fill="none" xmlns="http://www.w3.org/2000/svg">
  <path d="M 14.609 17.377 L 14.79 17.377 C 16.11 17.396 17.376 17.894 18.348 18.775 L 18.348 17.433 C 18.353 17.393 18.374 17.375 18.408 17.375 L 20.009 17.375 C 20.049 17.38 20.069 17.4 20.069 17.433 L 20.069 27.846 C 20.072 27.864 20.066 27.88 20.054 27.891 C 20.042 27.902 20.025 27.908 20.009 27.906 L 18.411 27.906 C 18.393 27.909 18.377 27.903 18.366 27.891 C 18.354 27.88 18.349 27.863 18.35 27.846 L 18.35 26.504 C 17.419 27.373 16.195 27.871 14.914 27.903 L 14.461 27.903 C 13.01 27.841 11.656 27.196 10.691 26.117 C 9.875 25.168 9.417 23.969 9.394 22.725 L 9.394 22.577 C 9.397 20.894 10.23 19.318 11.626 18.351 C 12.493 17.729 13.535 17.387 14.608 17.377 L 14.609 17.377 Z M 11.111 22.554 L 11.111 22.733 C 11.12 23.991 11.825 25.16 12.951 25.769 C 13.437 26.046 13.987 26.2 14.548 26.215 L 14.85 26.215 C 16.75 26.15 18.27 24.638 18.318 22.763 L 18.318 22.526 C 18.291 21.161 17.468 19.933 16.207 19.373 C 15.747 19.188 15.258 19.088 14.762 19.075 L 14.672 19.075 C 13.737 19.087 12.843 19.457 12.179 20.106 C 11.516 20.756 11.134 21.635 11.114 22.556 L 11.111 22.554 Z" fill="#C4C4C4" style="transform-box: fill-box; transform-origin: 50% 50%;"/>
  <text style="fill: rgb(196, 196, 196); font-family: Arial, sans-serif; font-size: 0.98533px; stroke-width: 0.0704306px; white-space: pre;" transform="matrix(24.099297, 0, 0, 20.579926, -71.081444, -249.365967)" x="3.266" y="12.86">M</text>
  <text style="white-space: pre; fill: rgb(51, 51, 51); font-family: Arial, sans-serif; font-size: 1.2px;" x="4.72" y="4.734"> </text>
  <text style="fill: rgb(196, 196, 196); font-family: Arial, sans-serif; font-size: 0.98533px; stroke-width: 0.0704306px; white-space: pre;" transform="matrix(24.099297, 0, 0, 20.579926, -52.700569, -249.514465)" x="3.266" y="12.86">r</text>
  <text style="white-space: pre; fill: rgb(51, 51, 51); font-family: Arial, sans-serif; font-size: 1.2px;" x="34.743" y="6.83"> </text>
  <text style="fill: rgb(196, 196, 196); font-family: Arial, sans-serif; font-size: 0.98533px; stroke-width: 0.0704306px; white-space: pre;" transform="matrix(24.099297, 0, 0, 20.579926, -48.203247, -249.759872)" x="3.266" y="12.86">.</text>
  <text style="white-space: pre; fill: rgb(51, 51, 51); font-family: Arial, sans-serif; font-size: 1.2px;" x="40.645" y="16.239"> </text>
  <text style="white-space: pre; fill: rgb(51, 51, 51); font-family: Arial, sans-serif; font-size: 1.2px;" x="48.13" y="16.923"> </text>
  <text style="fill: rgb(196, 196, 196); font-family: Arial, sans-serif; font-size: 0.98533px; stroke-width: 0.0704306px; white-space: pre;" transform="matrix(24.099297, 0, 0, 20.579926, -58.572952, -236.730942)" x="3.266" y="12.86">n</text>
  <path d="M 39.329 27.448 L 39.329 29.67 L 39.115 29.681 L 38.992 29.681 C 35.627 29.907 33.595 28.331 32.895 24.951 L 32.864 23.517 C 32.884 22.812 32.895 22.036 32.895 21.188 L 32.895 17.067 C 32.893 17.047 32.898 17.026 32.911 17.013 C 32.923 17 32.94 16.993 32.956 16.995 L 34.58 16.995 C 34.597 16.992 34.614 16.999 34.626 17.013 C 34.636 17.027 34.643 17.048 34.642 17.067 L 34.642 22.514 L 34.764 24.591 C 35.101 26.563 36.275 27.578 38.287 27.637 C 38.64 27.635 38.991 27.571 39.329 27.448 Z" fill="#C4C4C4" style="transform-origin: 36.097px 23.348px;"/>
  <text style="fill: rgb(196, 196, 196); font-family: Arial, sans-serif; font-size: 0.98533px; stroke-width: 0.0704306px; white-space: pre;" transform="matrix(20.961924, 0, 0, 21.412922, -69.010872, -247.429901)" x="3.266" y="12.86">J</text>
</svg>