<?xml version="1.0" encoding="utf-8"?>
<svg version="1.0" width="1304.000000pt" height="1532.000000pt" viewBox="0 0 1304.000000 1532.000000" preserveAspectRatio="xMidYMid meet" xmlns="http://www.w3.org/2000/svg" xmlns:bx="https://boxy-svg.com">
  <defs>
    <style bx:fonts="Courier Prime">@import url(https://fonts.googleapis.com/css2?family=Courier+Prime%3Aital%2Cwght%400%2C400%3B0%2C700%3B1%2C400%3B1%2C700&amp;display=swap);</style>
    <style bx:fonts="Audiowide">@import url(https://fonts.googleapis.com/css2?family=Audiowide%3Aital%2Cwght%400%2C400&amp;display=swap);</style>
  </defs>
  <g transform="translate(0.000000,1532.000000) scale(0.100000,-0.100000)" fill="#000000" stroke="none">
    <path d="M0 7660 l0 -7660 6520 0 6520 0 0 7660 0 7660 -6520 0 -6520 0 0 -7660z m4160 5 l0 -575 -70 0 -70 0 0 240 0 240 -65 0 -65 0 0 -240 0 -240 -65 0 -65 0 0 575 0 575 200 0 200 0 0 -575z m540 415 l0 -160 -65 0 -65 0 0 75 0 75 -65 0 -65 0 0 -165 0 -165 130 0 130 0 0 -80 0 -80 -130 0 -130 0 0 -244 0 -243 -31 -7 c-17 -3 -49 -6 -70 -6 l-39 0 0 580 0 580 200 0 200 0 0 -160z m679 -105 c22 -79 41 -146 41 -150 0 -3 -9 -5 -19 -5 -12 0 -23 11 -30 30 -9 28 -13 30 -60 30 -47 0 -50 -2 -56 -30 -5 -23 -12 -30 -30 -30 l-23 0 23 78 c13 42 33 110 44 150 19 63 25 72 45 72 21 0 26 -12 65 -145z m291 15 l0 -130 38 0 c43 0 53 -6 45 -26 -4 -10 -23 -14 -64 -14 l-59 0 0 150 c0 143 1 150 20 150 19 0 20 -7 20 -130z m425 110 c0 -11 -13 -16 -47 -18 l-48 -3 0 -45 0 -44 38 0 c43 0 53 -6 45 -26 -3 -9 -20 -14 -44 -14 l-39 0 0 -45 0 -45 43 0 c48 0 58 -5 50 -26 -4 -10 -23 -14 -69 -14 l-64 0 0 150 0 151 68 -3 c52 -2 67 -6 67 -18z m265 8 c0 -7 11 -31 24 -52 l24 -40 26 52 c18 36 32 52 46 52 11 0 20 -2 20 -5 0 -3 -16 -38 -36 -77 l-36 -71 36 -68 c20 -38 36 -71 36 -74 0 -3 -10 -5 -23 -5 -18 0 -29 12 -49 52 l-25 53 -27 -53 c-19 -37 -32 -52 -47 -52 -15 0 -18 4 -11 18 5 9 21 42 36 73 l28 56 -36 71 c-20 39 -36 74 -36 77 0 3 11 5 25 5 14 0 25 -6 25 -12z m420 -38 c13 -27 27 -50 30 -50 4 0 17 23 28 50 16 37 26 50 41 50 28 0 27 -5 -14 -82 l-36 -67 36 -70 c19 -39 35 -73 35 -76 0 -3 -9 -5 -20 -5 -14 0 -28 16 -46 52 l-27 53 -25 -53 c-20 -40 -31 -52 -49 -52 -23 0 -22 1 14 75 l37 75 -37 75 c-37 74 -37 75 -14 75 18 0 29 -11 47 -50z m480 -22 c12 -40 30 -103 40 -140 25 -82 25 -88 1 -88 -13 0 -21 9 -26 30 -6 29 -9 30 -60 30 -50 0 -53 -1 -58 -30 -5 -21 -12 -30 -27 -30 -11 0 -20 3 -20 6 0 3 18 68 40 145 22 77 40 142 40 145 0 2 11 4 25 4 21 0 26 -8 45 -72z m371 -30 l54 -103 3 103 c3 98 4 103 23 100 20 -3 21 -10 22 -151 2 -144 2 -147 -19 -147 -17 0 -33 22 -75 102 l-54 103 -3 -103 c-2 -94 -4 -102 -22 -102 -19 0 -20 8 -20 150 0 139 1 150 18 150 13 0 34 -29 73 -102z m489 67 c50 -48 61 -128 28 -201 -18 -40 -68 -64 -132 -64 l-56 0 0 151 0 151 65 -4 c55 -3 69 -8 95 -33z m401 6 c17 -18 29 -40 29 -56 0 -31 -24 -81 -42 -87 -9 -3 -5 -22 15 -66 l26 -62 -22 0 c-19 0 -29 13 -52 60 -16 33 -35 60 -42 60 -9 0 -13 -17 -13 -60 0 -53 -2 -60 -20 -60 -19 0 -20 7 -20 150 l0 150 56 0 c48 0 59 -4 85 -29z m289 -121 c0 -143 -1 -150 -20 -150 -19 0 -20 7 -20 150 0 143 1 150 20 150 19 0 20 -7 20 -150z m384 13 c22 -76 41 -144 44 -150 2 -8 -4 -13 -17 -13 -15 0 -25 9 -32 30 -10 28 -14 30 -60 30 -47 0 -50 -2 -55 -30 -5 -23 -12 -30 -30 -30 -14 0 -22 5 -19 13 2 6 20 68 40 137 20 69 38 131 40 138 3 6 15 12 27 12 21 0 27 -12 62 -137z m-3834 -433 c0 -17 -7 -20 -50 -20 l-50 0 0 -45 0 -45 40 0 c33 0 40 -3 40 -20 0 -17 -7 -20 -40 -20 l-40 0 0 -65 c0 -58 -2 -65 -20 -65 -19 0 -20 7 -20 150 l0 150 70 0 c63 0 70 -2 70 -20z m384 -1 c38 -30 56 -71 56 -129 0 -88 -50 -150 -120 -150 -70 0 -120 62 -120 150 0 88 50 150 120 150 23 0 48 -8 64 -21z m391 11 c54 -21 63 -112 15 -152 l-21 -17 31 -60 30 -61 -26 0 c-22 0 -30 9 -52 60 -34 77 -50 77 -54 3 -2 -46 -7 -59 -20 -61 -17 -3 -18 9 -18 147 l0 151 44 0 c25 0 56 -4 71 -10z m403 -7 c11 -10 23 -28 27 -40 5 -19 2 -23 -17 -23 -13 0 -29 9 -36 20 -16 25 -48 26 -62 1 -15 -30 -3 -47 50 -70 27 -12 54 -30 60 -41 32 -59 -9 -130 -75 -130 -38 0 -85 35 -85 65 0 23 43 19 58 -6 24 -37 85 -6 69 35 -4 9 -27 26 -52 37 -58 26 -79 57 -71 104 4 19 17 41 29 50 29 20 80 19 105 -2z m430 -8 c41 -35 55 -74 50 -145 -3 -44 -10 -66 -26 -83 l-22 -23 26 -35 25 -34 -23 -3 c-15 -3 -29 5 -43 22 -15 19 -30 26 -57 26 -68 0 -118 63 -118 150 0 28 7 64 15 80 37 71 117 92 173 45z m312 -89 c0 -120 9 -146 48 -146 41 1 47 15 52 137 4 102 7 118 23 121 15 3 17 -7 17 -113 0 -153 -15 -185 -90 -185 -74 0 -90 32 -90 185 0 108 1 115 20 115 19 0 20 -7 20 -114z m500 94 c0 -17 -7 -20 -45 -20 l-45 0 0 -45 0 -45 40 0 c33 0 40 -3 40 -20 0 -17 -7 -20 -40 -20 l-40 0 0 -45 0 -45 45 0 c38 0 45 -3 45 -20 0 -18 -7 -20 -65 -20 l-65 0 0 150 0 150 65 0 c58 0 65 -2 65 -20z m-3096 -146 c14 -5 16 -29 16 -160 l0 -154 -60 0 -60 0 0 153 c0 85 3 157 7 160 8 9 76 9 97 1z" style="fill: rgb(12, 57, 42);"/>
    <path d="M3900 7915 l0 -155 60 0 60 0 0 155 0 155 -60 0 -60 0 0 -155z"/>
    <path d="M5297 7993 c-9 -33 -17 -62 -17 -66 0 -4 16 -7 35 -7 39 0 39 -4 10 92 l-12 41 -16 -60z"/>
    <path d="M7197 7991 c-9 -33 -17 -63 -17 -66 0 -3 16 -5 36 -5 35 0 35 1 29 32 -4 18 -13 48 -19 66 l-12 34 -17 -61z"/>
    <path d="M8000 7970 l0 -110 35 0 c53 0 85 38 85 101 0 80 -31 119 -95 119 l-25 0 0 -110z"/>
    <path d="M8420 8030 l0 -51 36 3 c27 2 39 9 45 24 12 34 -11 68 -49 72 l-32 3 0 -51z"/>
    <path d="M9122 8019 c-6 -15 -14 -43 -17 -63 -7 -36 -7 -36 29 -36 20 0 36 1 36 3 0 1 -9 29 -19 62 -18 58 -20 59 -29 34z"/>
    <path d="M5633 7506 c-25 -22 -28 -31 -28 -86 0 -55 3 -64 28 -86 15 -13 37 -24 47 -24 10 0 32 11 47 24 25 22 28 31 28 86 0 55 -3 64 -28 86 -15 13 -37 24 -47 24 -10 0 -32 -11 -47 -24z"/>
    <path d="M6060 7480 c0 -48 1 -50 28 -50 35 0 52 16 52 50 0 34 -17 50 -52 50 -27 0 -28 -2 -28 -50z"/>
    <path d="M6848 7500 c-28 -29 -30 -35 -26 -86 8 -93 66 -131 124 -81 22 19 28 34 32 80 4 52 2 58 -26 87 -17 16 -40 30 -52 30 -12 0 -35 -14 -52 -30z"/>
    <text style="white-space: pre; fill: rgb(51, 51, 51); font-family: Arial, sans-serif; font-size: 28px;" transform="matrix(1, 0, 0, -1, 0, 0)" x="3454.394" y="-11236.09">Enter your text here</text>
    <text style="white-space: pre; fill: rgb(51, 51, 51); font-family: Arial, sans-serif; font-size: 28px;" transform="matrix(1, 0, 0, -1, 0, 0)" x="-6275.799" y="-11951.086">Enter your text here</text>
    <text style="white-space: pre; fill: rgb(51, 51, 51); font-family: Arial, sans-serif; font-size: 28px;" transform="matrix(1, 0, 0, -1, 0, 0)" x="-6152.505" y="-12012.733">Enter your text here</text>
    <text style="white-space: pre; fill: rgb(51, 51, 51); font-family: Arial, sans-serif; font-size: 28px;" transform="matrix(1, 0, 0, -1, 0, 0)" x="-4904.151" y="-11165.086">Enter your text here</text>
    <rect x="5051.851" y="-8593.039" width="5055.057" height="1803.176" style="stroke: rgb(0, 0, 0); fill: rgb(12, 57, 42);" transform="matrix(1, 0, 0, -1, 0, 0)"/>
    <text style="fill: rgb(255, 255, 255); font-family: &quot;Courier Prime&quot;; font-size: 330px; letter-spacing: 20px; word-spacing: -28px; white-space: pre;" transform="matrix(1, 0, 0, -1, 8942.923828, -965.401001)"><tspan x="-3717.45" y="-8837.91">Lawyer Managment</tspan><tspan x="-3717.45" dy="1.6em">​</tspan><tspan>System</tspan></text>
    <rect x="-21.111" y="-8890.154" width="5159.872" height="2357.365" style="stroke: rgb(0, 0, 0); fill: rgb(12, 57, 42);" transform="matrix(1, 0, 0, -1, 0, 0)"/>
    <text style="fill: rgb(255, 255, 255); font-family: Audiowide; font-size: 680px; white-space: pre;" transform="matrix(1.1183, 0, 0, -1.476185, -347.541595, -4412.526367)" x="2937.791" y="-7984.273">LMS.</text>
  </g>
</svg>